<svg xmlns="http://www.w3.org/2000/svg" viewBox="0 0 800 352" width="800" height="352" font-family="system-ui,-apple-system,'Segoe UI',sans-serif" role="img" aria-label="Время ответа на заказ, p95"><rect width="100%" height="100%" fill="#fcfcfb"/><text x="24" y="34" font-size="18" font-weight="600" fill="#0b0b0b">Время ответа на заказ, p95</text><text x="24" y="56" font-size="12.5" fill="#52514e">5 000 покупателей в момент старта продаж концерта на стадионе. Столбец — среднее прогонов, ус — разброс.</text><line x1="230.0" y1="96" x2="230.0" y2="312" stroke="#e6e4df" stroke-width="1"/><text x="230.0" y="330" font-size="11.5" fill="#52514e" text-anchor="middle">0</text><line x1="350.0" y1="96" x2="350.0" y2="312" stroke="#e6e4df" stroke-width="1"/><text x="350.0" y="330" font-size="11.5" fill="#52514e" text-anchor="middle">5 000</text><line x1="470.0" y1="96" x2="470.0" y2="312" stroke="#e6e4df" stroke-width="1"/><text x="470.0" y="330" font-size="11.5" fill="#52514e" text-anchor="middle">10 000</text><line x1="590.0" y1="96" x2="590.0" y2="312" stroke="#e6e4df" stroke-width="1"/><text x="590.0" y="330" font-size="11.5" fill="#52514e" text-anchor="middle">15 000</text><line x1="710.0" y1="96" x2="710.0" y2="312" stroke="#e6e4df" stroke-width="1"/><text x="710.0" y="330" font-size="11.5" fill="#52514e" text-anchor="middle">20 000</text><text x="230" y="84" font-size="11.5" fill="#52514e">мс</text><text x="218" y="134.5" font-size="13" fill="#0b0b0b" text-anchor="end">Без очереди, без кэша сводки</text><rect x="230" y="117.0" width="348.9" height="26" rx="3" fill="#c0321d"/><line x1="548.5" y1="130.0" x2="609.4" y2="130.0" stroke="#0b0b0b" stroke-width="1.5"/><text x="617.4" y="134.5" font-size="12.5" font-weight="600" fill="#0b0b0b">14 539</text><text x="218" y="186.5" font-size="13" fill="#0b0b0b" text-anchor="end">Без очереди</text><rect x="230" y="169.0" width="264.3" height="26" rx="3" fill="#eb6834"/><line x1="480.5" y1="182.0" x2="508.1" y2="182.0" stroke="#0b0b0b" stroke-width="1.5"/><text x="516.1" y="186.5" font-size="12.5" font-weight="600" fill="#0b0b0b">11 013</text><text x="218" y="238.5" font-size="13" fill="#0b0b0b" text-anchor="end">Очередь, 150 в секунду</text><rect x="230" y="221.0" width="25.4" height="26" rx="3" fill="#2a78d6"/><line x1="251.4" y1="234.0" x2="259.3" y2="234.0" stroke="#0b0b0b" stroke-width="1.5"/><text x="267.3" y="238.5" font-size="12.5" font-weight="600" fill="#0b0b0b">1 058</text><text x="218" y="290.5" font-size="13" fill="#0b0b0b" text-anchor="end">Очередь, 300 в секунду</text><rect x="230" y="273.0" width="108.2" height="26" rx="3" fill="#1baf7a"/><line x1="319.8" y1="286.0" x2="356.6" y2="286.0" stroke="#0b0b0b" stroke-width="1.5"/><text x="364.6" y="290.5" font-size="12.5" font-weight="600" fill="#0b0b0b">4 508</text></svg>