<svg xmlns="http://www.w3.org/2000/svg" viewBox="0 0 800 436" width="800" height="436" font-family="system-ui,-apple-system,'Segoe UI',sans-serif" role="img" aria-label="Одно место: время захвата на сервере p95"><rect width="100%" height="100%" fill="#fcfcfb"/><text x="24" y="34" font-size="18" font-weight="600" fill="#0b0b0b">Одно место: время захвата на сервере p95</text><text x="24" y="56" font-size="12.5" fill="#52514e">Только оформление заказа, без входа, ключа идемпотентности и сети (метрика dd_booking_attempt_seconds).</text><line x1="24" y1="82" x2="46" y2="82" stroke="#2a78d6" stroke-width="2" stroke-linecap="round"/><circle cx="35.0" cy="82.0" r="5" fill="#2a78d6" stroke="#fcfcfb" stroke-width="2"/><text x="54" y="86" font-size="12.5" fill="#0b0b0b">Пессимистичная</text><line x1="184" y1="82" x2="206" y2="82" stroke="#eb6834" stroke-width="2" stroke-linecap="round"/><rect x="189.6" y="77.0" width="10" height="10" rx="1.5" fill="#eb6834" stroke="#fcfcfb" stroke-width="2"/><text x="214" y="86" font-size="12.5" fill="#0b0b0b">Оптимистичная</text><line x1="336" y1="82" x2="358" y2="82" stroke="#1baf7a" stroke-width="2" stroke-linecap="round"/><path d="M346.8 76.0l6 6-6 6-6-6z" fill="#1baf7a" stroke="#fcfcfb" stroke-width="2"/><text x="366" y="86" font-size="12.5" fill="#0b0b0b">Redis + БД</text><line x1="72" y1="384.0" x2="580" y2="384.0" stroke="#e6e4df" stroke-width="1"/><text x="62" y="388.0" font-size="11.5" fill="#52514e" text-anchor="end">0</text><line x1="72" y1="332.0" x2="580" y2="332.0" stroke="#e6e4df" stroke-width="1"/><text x="62" y="336.0" font-size="11.5" fill="#52514e" text-anchor="end">2 000</text><line x1="72" y1="280.0" x2="580" y2="280.0" stroke="#e6e4df" stroke-width="1"/><text x="62" y="284.0" font-size="11.5" fill="#52514e" text-anchor="end">4 000</text><line x1="72" y1="228.0" x2="580" y2="228.0" stroke="#e6e4df" stroke-width="1"/><text x="62" y="232.0" font-size="11.5" fill="#52514e" text-anchor="end">6 000</text><line x1="72" y1="176.0" x2="580" y2="176.0" stroke="#e6e4df" stroke-width="1"/><text x="62" y="180.0" font-size="11.5" fill="#52514e" text-anchor="end">8 000</text><line x1="72" y1="124.0" x2="580" y2="124.0" stroke="#e6e4df" stroke-width="1"/><text x="62" y="128.0" font-size="11.5" fill="#52514e" text-anchor="end">10 000</text><text x="24" y="108" font-size="11.5" fill="#52514e">мс</text><text x="96.0" y="406" font-size="11.5" fill="#52514e" text-anchor="middle">500</text><text x="326.0" y="406" font-size="11.5" fill="#52514e" text-anchor="middle">2 000</text><text x="556.0" y="406" font-size="11.5" fill="#52514e" text-anchor="middle">5 000</text><text x="326" y="426" font-size="11.5" fill="#52514e" text-anchor="middle">одновременных покупателей</text><path d="M89.0 363.3L319.0 321.1L549.0 170.9" fill="none" stroke="#2a78d6" stroke-width="2" stroke-linejoin="round" stroke-linecap="round"/><line x1="89.0" y1="371.4" x2="89.0" y2="359.1" stroke="#2a78d6" stroke-width="1.5" stroke-opacity="0.55"/><line x1="319.0" y1="321.7" x2="319.0" y2="320.1" stroke="#2a78d6" stroke-width="1.5" stroke-opacity="0.55"/><line x1="549.0" y1="220.7" x2="549.0" y2="142.8" stroke="#2a78d6" stroke-width="1.5" stroke-opacity="0.55"/><circle cx="89.0" cy="363.3" r="5" fill="#2a78d6" stroke="#fcfcfb" stroke-width="2"/><circle cx="319.0" cy="321.1" r="5" fill="#2a78d6" stroke="#fcfcfb" stroke-width="2"/><circle cx="549.0" cy="170.9" r="5" fill="#2a78d6" stroke="#fcfcfb" stroke-width="2"/><path d="M96.0 367.8L326.0 322.0L556.0 258.7" fill="none" stroke="#eb6834" stroke-width="2" stroke-linejoin="round" stroke-linecap="round"/><line x1="96.0" y1="371.4" x2="96.0" y2="360.8" stroke="#eb6834" stroke-width="1.5" stroke-opacity="0.55"/><line x1="326.0" y1="322.3" x2="326.0" y2="321.8" stroke="#eb6834" stroke-width="1.5" stroke-opacity="0.55"/><line x1="556.0" y1="259.0" x2="556.0" y2="258.3" stroke="#eb6834" stroke-width="1.5" stroke-opacity="0.55"/><rect x="91.0" y="362.8" width="10" height="10" rx="1.5" fill="#eb6834" stroke="#fcfcfb" stroke-width="2"/><rect x="321.0" y="317.0" width="10" height="10" rx="1.5" fill="#eb6834" stroke="#fcfcfb" stroke-width="2"/><rect x="551.0" y="253.7" width="10" height="10" rx="1.5" fill="#eb6834" stroke="#fcfcfb" stroke-width="2"/><path d="M103.0 373.5L333.0 358.7L563.0 321.0" fill="none" stroke="#1baf7a" stroke-width="2" stroke-linejoin="round" stroke-linecap="round"/><line x1="103.0" y1="377.2" x2="103.0" y2="371.3" stroke="#1baf7a" stroke-width="1.5" stroke-opacity="0.55"/><line x1="333.0" y1="358.7" x2="333.0" y2="358.7" stroke="#1baf7a" stroke-width="1.5" stroke-opacity="0.55"/><line x1="563.0" y1="321.0" x2="563.0" y2="321.0" stroke="#1baf7a" stroke-width="1.5" stroke-opacity="0.55"/><path d="M103.0 367.5l6 6-6 6-6-6z" fill="#1baf7a" stroke="#fcfcfb" stroke-width="2"/><path d="M333.0 352.7l6 6-6 6-6-6z" fill="#1baf7a" stroke="#fcfcfb" stroke-width="2"/><path d="M563.0 315.0l6 6-6 6-6-6z" fill="#1baf7a" stroke="#fcfcfb" stroke-width="2"/><text x="598.0" y="170.9" font-size="12" fill="#0b0b0b">Пессимистичная · 8 197</text><text x="598.0" y="258.7" font-size="12" fill="#0b0b0b">Оптимистичная · 4 820</text><text x="598.0" y="321.0" font-size="12" fill="#0b0b0b">Redis + БД · 2 424</text></svg>